HIERARCHY
ROOT joint_Root
{
	OFFSET 0.0 0.0 0.0
	CHANNELS 6 Xposition Yposition Zposition Zrotation Xrotation Yrotation 
	JOINT Hips
	{
		OFFSET 4.5925 91.4895 -427.239
		CHANNELS 6 Xposition Yposition Zposition Zrotation Xrotation Yrotation 
		JOINT Spine
		{
			OFFSET 15.7357 0.0 0.0
			CHANNELS 6 Xposition Yposition Zposition Zrotation Xrotation Yrotation 
			JOINT Chest
			{
				OFFSET 8.98455 -0.406207 0.0
				CHANNELS 6 Xposition Yposition Zposition Zrotation Xrotation Yrotation 
				JOINT Neck
				{
					OFFSET 16.3773 0.0 0.0
					CHANNELS 6 Xposition Yposition Zposition Zrotation Xrotation Yrotation 
					JOINT Head
					{
						OFFSET 6.45672 0.0 0.0
						CHANNELS 6 Xposition Yposition Zposition Zrotation Xrotation Yrotation 
						End Site
						{
							OFFSET 0.0 0.0 0.0
						}
					}
				}
				JOINT Shoulder_L
				{
					OFFSET 12.9942 -0.242716 4.98039
					CHANNELS 6 Xposition Yposition Zposition Zrotation Xrotation Yrotation 
					JOINT UpperArm_L
					{
						OFFSET 5.34809 0.0 0.0
						CHANNELS 6 Xposition Yposition Zposition Zrotation Xrotation Yrotation 
						JOINT LowerArm_L
						{
							OFFSET 24.3286 1.87007e-05 0.0
							CHANNELS 6 Xposition Yposition Zposition Zrotation Xrotation Yrotation 
							JOINT Hand_L
							{
								OFFSET 22.2916 0.0 0.0
								CHANNELS 6 Xposition Yposition Zposition Zrotation Xrotation Yrotation 
								End Site
								{
									OFFSET 0.0 0.0 0.0
								}
							}
						}
					}
				}
				JOINT Shoulder_R
				{
					OFFSET 12.9945 -0.242716 -4.98039
					CHANNELS 6 Xposition Yposition Zposition Zrotation Xrotation Yrotation 
					JOINT UpperArm_R
					{
						OFFSET -5.34813 0.0 0.0
						CHANNELS 6 Xposition Yposition Zposition Zrotation Xrotation Yrotation 
						JOINT LowerArm_R
						{
							OFFSET -24.3289 0.000322201 0.0
							CHANNELS 6 Xposition Yposition Zposition Zrotation Xrotation Yrotation 
							JOINT Hand_R
							{
								OFFSET -22.2915 -0.000108084 0.0
								CHANNELS 6 Xposition Yposition Zposition Zrotation Xrotation Yrotation 
								End Site
								{
									OFFSET 0.0 0.0 0.0
								}
							}
						}
					}
				}
			}
		}
		JOINT UpperLeg_L
		{
			OFFSET -2.19248 -6.46944 0.0
			CHANNELS 6 Xposition Yposition Zposition Zrotation Xrotation Yrotation 
			JOINT LowerLeg_L
			{
				OFFSET 39.0811 0.0 -1.23785e-05
				CHANNELS 6 Xposition Yposition Zposition Zrotation Xrotation Yrotation 
				JOINT Foot_L
				{
					OFFSET 40.9854 0.0 -1.26872e-05
					CHANNELS 6 Xposition Yposition Zposition Zrotation Xrotation Yrotation 
					JOINT Toes_L
					{
						OFFSET 11.7543 0.0 0.0
						CHANNELS 6 Xposition Yposition Zposition Zrotation Xrotation Yrotation 
						End Site
						{
							OFFSET 0.0 0.0 0.0
						}
					}
				}
			}
		}
		JOINT UpperLeg_R
		{
			OFFSET -2.19251 6.46944 0.0
			CHANNELS 6 Xposition Yposition Zposition Zrotation Xrotation Yrotation 
			JOINT LowerLeg_R
			{
				OFFSET -39.0811 -0.00228153 -0.0401928
				CHANNELS 6 Xposition Yposition Zposition Zrotation Xrotation Yrotation 
				JOINT Foot_R
				{
					OFFSET -40.9854 0.0 0.0
					CHANNELS 6 Xposition Yposition Zposition Zrotation Xrotation Yrotation 
					JOINT Toes_R
					{
						OFFSET -11.7543 0.0 0.0
						CHANNELS 6 Xposition Yposition Zposition Zrotation Xrotation Yrotation 
						End Site
						{
							OFFSET 0.0 0.0 0.0
						}
					}
				}
			}
		}
	}
}
MOTION
Frames:	4
Frame Time:	0.0333333
0.000000 0.000000 0.000000 0.000000 0.000000 -0.000000 -3.404360 91.168900 -0.094592 88.379200 6.477680 5.994180 15.735700 0.000005 -0.000001 88.012000 85.570600 -91.514500 8.984550 -0.406207 -0.000000 1.093900 -0.103530 -6.998110 16.377300 -0.000001 -0.000001 6.315690 -5.930350 7.198140 6.456720 -0.000001 -0.000000 -2.220230 -2.813800 -2.159370 12.994200 -0.242716 4.980390 -92.011300 5.261430 -69.044600 5.348090 -0.000007 -0.000001 -60.435900 17.131500 -4.187640 24.328600 0.000019 0.000005 6.394540 19.382900 -18.659200 22.291600 -0.000001 0.000005 12.117800 5.157160 3.771650 12.994500 -0.242716 -4.980390 93.910700 -9.071830 -66.560200 -5.348130 -0.000001 -0.000004 -36.557900 -67.247400 -76.791600 -24.328900 0.000322 -0.000009 -6.102930 -6.841600 -41.901900 -22.291500 -0.000108 -0.000004 16.160800 5.500460 -6.550130 -2.192480 -6.469440 -0.000000 -172.839000 -5.880800 -5.594320 39.081100 -0.000007 -0.000012 -0.172679 0.307296 29.333100 40.985400 -0.000006 -0.000013 -1.050610 9.741930 -68.154800 11.754300 -0.000000 0.000003 -0.000100 -0.001027 -16.617000 -2.192510 6.469440 -0.000001 178.955000 22.837900 179.127000 -39.081100 -0.002282 -0.040193 0.006599 -0.006441 27.063400 -40.985400 0.000008 0.000006 7.408130 8.203010 -71.214000 -11.754300 -0.000006 -0.000006 -0.003806 -0.049403 -18.582600
0.000000 0.000000 0.000000 0.000000 0.000000 -0.000000 -3.223920 91.189300 -0.193794 88.339000 5.741310 5.939000 15.735700 0.000005 -0.000001 87.988300 85.585600 -91.287300 8.984550 -0.406207 -0.000000 1.062610 -0.117049 -6.591430 16.377300 -0.000001 -0.000001 6.086560 -5.892900 7.253730 6.456720 -0.000001 -0.000000 -2.111190 -2.688100 -2.453100 12.994200 -0.242716 4.980390 -92.054700 5.382740 -69.071000 5.348090 -0.000007 -0.000001 -60.786600 18.338200 -4.587310 24.328600 0.000019 0.000005 6.290490 18.927000 -18.769900 22.291600 -0.000001 0.000005 12.265300 5.158720 3.733790 12.994500 -0.242716 -4.980390 93.593400 -8.480690 -66.934400 -5.348130 -0.000001 -0.000004 -35.501900 -65.867700 -73.864900 -24.328900 0.000322 -0.000009 -7.641210 -7.618120 -45.334000 -22.291500 -0.000108 -0.000004 15.693800 5.488210 -6.065570 -2.192480 -6.469440 -0.000000 -172.966000 -5.937650 -5.573740 39.081100 -0.000007 -0.000012 -0.174648 0.310904 29.325100 40.985400 -0.000006 -0.000013 -1.088490 9.039000 -68.176600 11.754300 -0.000000 0.000003 -0.000100 -0.001032 -16.617100 -2.192510 6.469440 -0.000001 178.933000 22.410200 178.952000 -39.081100 -0.002282 -0.040193 0.006444 -0.006141 27.051200 -40.985400 0.000008 0.000006 7.290740 8.556890 -71.066600 -11.754300 -0.000006 -0.000006 -0.003754 -0.048857 -18.560300
0.000000 0.000000 0.000000 0.000000 0.000000 -0.000000 -3.003470 91.222300 -0.276500 88.311100 4.806250 5.893450 15.735700 0.000005 -0.000001 88.156500 85.586500 -91.253300 8.984550 -0.406207 -0.000000 1.061170 -0.102851 -6.187600 16.377300 -0.000001 -0.000001 5.866690 -5.760050 7.141090 6.456720 -0.000001 -0.000000 -2.035640 -2.591510 -2.395460 12.994200 -0.242716 4.980390 -92.089100 5.469620 -69.058100 5.348090 -0.000007 -0.000001 -61.125000 20.036700 -5.297690 24.328600 0.000019 0.000005 6.204850 18.921400 -18.534900 22.291600 -0.000001 0.000005 12.018300 5.161610 3.663990 12.994500 -0.242716 -4.980390 93.091800 -7.489190 -67.490800 -5.348130 -0.000001 -0.000004 -33.862100 -63.705600 -69.550000 -24.328900 0.000322 -0.000009 -9.504780 -8.014600 -50.206700 -22.291500 -0.000108 -0.000004 15.720800 5.483350 -5.877190 -2.192480 -6.469440 -0.000000 -173.096000 -6.281660 -5.442060 39.081100 -0.000007 -0.000012 -0.174559 0.311888 29.235300 40.985400 -0.000006 -0.000013 -1.077290 8.418150 -68.194600 11.754300 -0.000000 0.000003 -0.000101 -0.001041 -16.617500 -2.192510 6.469440 -0.000001 178.798000 22.086300 178.842000 -39.081100 -0.002282 -0.040193 -0.000635 0.007750 26.967000 -40.985400 0.000008 0.000006 7.128190 9.275150 -70.887100 -11.754300 -0.000006 -0.000006 -0.003722 -0.048512 -18.546300
0.000000 0.000000 0.000000 0.000000 0.000000 -0.000000 -2.745800 91.249900 -0.349539 88.295400 3.716050 5.928410 15.735700 0.000005 -0.000001 87.876200 85.560200 -90.745200 8.984550 -0.406207 -0.000000 1.109940 -0.162452 -5.731690 16.377300 -0.000001 -0.000001 5.525860 -5.442330 6.860340 6.456720 -0.000001 -0.000000 -1.944190 -2.438110 -2.239490 12.994200 -0.242716 4.980390 -92.139400 5.558830 -68.910700 5.348090 -0.000007 -0.000001 -61.467100 22.085800 -6.095250 24.328600 0.000019 0.000005 6.057900 18.812300 -18.216500 22.291600 -0.000001 0.000005 11.653900 5.162130 3.651740 12.994500 -0.242716 -4.980390 92.550300 -6.432030 -68.318700 -5.348130 -0.000001 -0.000004 -31.952100 -60.546300 -63.661000 -24.328900 0.000322 -0.000009 -11.365900 -7.569720 -56.755900 -22.291500 -0.000108 -0.000004 16.426400 5.480490 -5.767460 -2.192480 -6.469440 -0.000000 -173.224000 -6.830470 -5.193170 39.081100 -0.000007 -0.000012 -0.173735 0.311356 29.161500 40.985400 -0.000006 -0.000013 -1.029190 7.837920 -68.249000 11.754300 -0.000000 0.000003 -0.000111 -0.001123 -16.620500 -2.192510 6.469440 -0.000001 178.550000 21.753300 178.817000 -39.081100 -0.002282 -0.040193 -0.016230 0.038509 26.902000 -40.985400 0.000008 0.000006 6.829750 10.188100 -70.689600 -11.754300 -0.000006 -0.000006 -0.003715 -0.048443 -18.543500
